<svg width="16" height="20" viewBox="0 0 16 20" fill="none" xmlns="http://www.w3.org/2000/svg">
<ellipse cx="7.69749" cy="5.12986" rx="4.37986" ry="4.37986" stroke="#807A7A" stroke-width="1.5" stroke-linecap="round" stroke-linejoin="round"/>
<path fill-rule="evenodd" clip-rule="evenodd" d="M0.750015 15.6012C0.748838 15.2933 0.817699 14.9892 0.951388 14.7118C1.37091 13.8728 2.55398 13.4281 3.53567 13.2267C4.24367 13.0756 4.96145 12.9747 5.68365 12.9246C7.02077 12.8072 8.36561 12.8072 9.70272 12.9246C10.4249 12.9753 11.1426 13.0762 11.8507 13.2267C12.8324 13.4281 14.0155 13.8308 14.435 14.7118C14.7038 15.2772 14.7038 15.9336 14.435 16.499C14.0155 17.38 12.8324 17.7828 11.8507 17.9757C11.1435 18.1331 10.4255 18.2369 9.70272 18.2862C8.61442 18.3785 7.52104 18.3953 6.43041 18.3365C6.1787 18.3365 5.93537 18.3365 5.68365 18.2862C4.96358 18.2375 4.24829 18.1337 3.54407 17.9757C2.55398 17.7828 1.37931 17.38 0.951388 16.499C0.818382 16.2184 0.749589 15.9117 0.750015 15.6012Z" stroke="#807A7A" stroke-width="1.5" stroke-linecap="round" stroke-linejoin="round"/>
</svg>
